<svg xmlns="http://www.w3.org/2000/svg" width="20" height="20" viewBox="0 0 20 20">
  <path id="Path_388" data-name="Path 388" d="M10.312-17.187a10,10,0,0,0-10,10,10,10,0,0,0,10,10,10,10,0,0,0,10-10A10,10,0,0,0,10.312-17.187ZM16.119-6.058a.485.485,0,0,1-.484.484h-3.71v3.71a.485.485,0,0,1-.484.484H9.183A.485.485,0,0,1,8.7-1.865v-3.71H4.99a.485.485,0,0,1-.484-.484V-8.316A.485.485,0,0,1,4.99-8.8H8.7v-3.71a.485.485,0,0,1,.484-.484h2.258a.485.485,0,0,1,.484.484V-8.8h3.71a.485.485,0,0,1,.484.484Z" transform="translate(-0.313 17.187)" fill="#132d39"/>
</svg>
