<svg xmlns="http://www.w3.org/2000/svg" width="16" height="32" viewBox="0 0 16 32">
  <g id="Group_56" data-name="Group 56" transform="translate(50 -4)">
    <path id="Path_412" data-name="Path 412" d="M8.25,2.25a8,8,0,0,0,8-8,8,8,0,0,0-8-8,8,8,0,0,0-8,8A8,8,0,0,0,8.25,2.25Zm3.742-9.419a.388.388,0,0,1,.387.387v2.065a.388.388,0,0,1-.387.387H8.25v2.284a.387.387,0,0,1-.661.274L3.9-5.479a.384.384,0,0,1,0-.545L7.589-9.731a.387.387,0,0,1,.661.274v2.287Z" transform="translate(-50.25 17.75)" fill="#6e8591"/>
    <path id="Path_413" data-name="Path 413" d="M8.25,2.25a8,8,0,0,0,8-8,8,8,0,0,0-8-8,8,8,0,0,0-8,8A8,8,0,0,0,8.25,2.25Zm3.742-9.419a.388.388,0,0,1,.387.387v2.065a.388.388,0,0,1-.387.387H8.25v2.284a.387.387,0,0,1-.661.274L3.9-5.479a.384.384,0,0,1,0-.545L7.589-9.731a.387.387,0,0,1,.661.274v2.287Z" transform="translate(-50.25 33.75)" fill="#367da1"/>
  </g>
</svg>
