<svg xmlns="http://www.w3.org/2000/svg" width="25" height="25" viewBox="0 0 25 25">
  <path id="Back_Button_Icon" data-name="Back Button Icon" d="M12.5,25A12.5,12.5,0,0,1,3.66,3.66,12.5,12.5,0,0,1,21.34,21.34,12.419,12.419,0,0,1,12.5,25Zm0-22.58A10.082,10.082,0,1,0,22.581,12.5,10.092,10.092,0,0,0,12.5,2.42ZM11.891,18.1a.6.6,0,0,1-.423-.177l-4.99-4.99a.608.608,0,0,1,0-.857l4.99-4.989a.6.6,0,0,1,.424-.179.6.6,0,0,1,.609.608v3.376h5.847a.606.606,0,0,1,.6.6v2.016a.606.606,0,0,1-.6.6H12.5V17.49A.6.6,0,0,1,11.891,18.1Z" transform="translate(0 0)" fill="#132d39"/>
</svg>
