<svg xmlns="http://www.w3.org/2000/svg" width="20" height="20" viewBox="0 0 20 20">
  <path id="Book_Icon" data-name="Book Icon" d="M18.827,0c-1.9.139-5.685.644-8.02,2.482a.749.749,0,0,0-.252.588V19.316c0,.516.439.842.808.6,2.4-1.554,5.876-1.979,7.594-2.095A1.279,1.279,0,0,0,20,16.455V1.373A1.24,1.24,0,0,0,18.827,0ZM9.192,2.484C6.858.647,3.076.142,1.173,0A1.24,1.24,0,0,0,0,1.373V16.455a1.278,1.278,0,0,0,1.042,1.369c1.718.116,5.194.541,7.6,2.1.369.239.806-.087.806-.6V3.064A.731.731,0,0,0,9.192,2.484Z" fill="#b8e4f9"/>
</svg>
