<svg xmlns="http://www.w3.org/2000/svg" width="35.003" height="25" viewBox="0 0 35.003 25">
  <path id="Coffee_Icon" data-name="Coffee Icon" d="M10.5-3.107H21a5.306,5.306,0,0,0,5.25-5.357H28a7.079,7.079,0,0,0,7-7.143,7.079,7.079,0,0,0-7-7.143H6.562A1.323,1.323,0,0,0,5.25-21.411V-8.464A5.306,5.306,0,0,0,10.5-3.107ZM28-19.179a3.54,3.54,0,0,1,3.5,3.571A3.54,3.54,0,0,1,28-12.036H26.25v-7.143ZM30.609,2.25c2.609,0,3.33-3.571,1.963-3.571H.673C-.695-1.321.038,2.25,2.641,2.25Z" transform="translate(0.003 22.75)" fill="#6e8591"/>
</svg>
