<svg xmlns="http://www.w3.org/2000/svg" width="24" height="24" viewBox="0 0 24 24">
  <path id="Calendar-Icon" d="M0,2.5A2.428,2.428,0,0,0,2.571,4.75H21.429A2.428,2.428,0,0,0,24,2.5V-10.25H0Zm3.429-9a.811.811,0,0,1,.857-.75H9.429a.811.811,0,0,1,.857.75V-2a.811.811,0,0,1-.857.75H4.286A.811.811,0,0,1,3.429-2Zm18-9.75H18.857V-18.5A.811.811,0,0,0,18-19.25H16.286a.811.811,0,0,0-.857.75v2.25H8.571V-18.5a.811.811,0,0,0-.857-.75H6a.811.811,0,0,0-.857.75v2.25H2.571A2.428,2.428,0,0,0,0-14v2.25H24V-14A2.428,2.428,0,0,0,21.429-16.25Z" transform="translate(0 19.25)" fill="#367da1"/>
</svg>
