<svg xmlns="http://www.w3.org/2000/svg" width="24" height="24" viewBox="0 0 24 24">
  <g id="kcal_Icon" data-name="kcal Icon" transform="translate(-28 -254)">
    <path id="kcal_Icon-2" data-name="kcal Icon" d="M12,24A12,12,0,1,1,24,12,12.014,12.014,0,0,1,12,24Zm3.472-11.51a2.065,2.065,0,0,0-1.356.416,1.542,1.542,0,0,0-.5,1.253,1.881,1.881,0,0,0,.472,1.339,1.563,1.563,0,0,0,1.188.5,1.769,1.769,0,0,0,1.529-.842v.757h.881V12.256a2.166,2.166,0,0,0-.514-1.595,1.816,1.816,0,0,0-1.326-.506,2.66,2.66,0,0,0-1.9.821l.432.746a2.126,2.126,0,0,1,1.331-.576c.676,0,1.019.381,1.019,1.132v.212ZM11.2,10.154a2.27,2.27,0,0,0-1.759.816,3.093,3.093,0,0,0-.721,2.117,3.138,3.138,0,0,0,.691,2.107,2.117,2.117,0,0,0,1.65.805,2.456,2.456,0,0,0,1.936-1.045l-.57-.768a1.589,1.589,0,0,1-1.214.725,1.352,1.352,0,0,1-1.084-.544,2.05,2.05,0,0,1-.44-1.328,1.856,1.856,0,0,1,.444-1.28,1.378,1.378,0,0,1,1.05-.5,1.69,1.69,0,0,1,1.2.64l.57-.864A2.19,2.19,0,0,0,11.2,10.154ZM19.031,8v7.915H20V8ZM5.666,13.429v0l1.363,2.483H8.207L6.331,12.49l1.746-2.25H6.833L4.967,12.65V8H4v7.915h.968V14.3l.7-.872Zm9.9,1.556a1.088,1.088,0,0,1-.721-.218.786.786,0,0,1-.259-.635c0-.537.352-.81,1.045-.81h1.088v.48a1.126,1.126,0,0,1-.346.864A1.159,1.159,0,0,1,15.563,14.986Z" transform="translate(28 254)" fill="#367da1"/>
  </g>
</svg>
