<svg xmlns="http://www.w3.org/2000/svg" width="16" height="16" viewBox="0 0 16 16">
  <path id="Clock_Icon" data-name="Clock Icon" d="M8.25-13.75a8,8,0,0,0-8,8,8,8,0,0,0,8,8,8,8,0,0,0,8-8A8,8,0,0,0,8.25-13.75ZM8.25.7A6.45,6.45,0,0,1,1.8-5.75,6.45,6.45,0,0,1,8.25-12.2,6.45,6.45,0,0,1,14.7-5.75,6.45,6.45,0,0,1,8.25.7Zm1.994-3.368a.39.39,0,0,0,.542-.084l.606-.835a.387.387,0,0,0-.084-.542L9.153-5.7v-4.571a.388.388,0,0,0-.387-.387H7.734a.388.388,0,0,0-.387.387v5.3a.39.39,0,0,0,.158.313Z" transform="translate(-0.25 13.75)" fill="#132d39"/>
</svg>
