<svg xmlns="http://www.w3.org/2000/svg" width="18" height="18" viewBox="0 0 18 18">
  <path id="Cog_Icon" data-name="Cog Icon" d="M18.353-2.584l-1.615-.893a6.7,6.7,0,0,0,0-2.548l1.615-.893a.431.431,0,0,0,.208-.508,8.956,8.956,0,0,0-2.074-3.433.471.471,0,0,0-.561-.083l-1.615.893a7.237,7.237,0,0,0-2.3-1.274V-13.1a.44.44,0,0,0-.356-.425,9.946,9.946,0,0,0-4.14,0,.44.44,0,0,0-.356.425v1.785a7.467,7.467,0,0,0-2.3,1.274l-1.611-.893a.465.465,0,0,0-.561.083A8.9,8.9,0,0,0,.6-7.421a.426.426,0,0,0,.208.508l1.615.893a6.7,6.7,0,0,0,0,2.548L.812-2.58A.431.431,0,0,0,.6-2.072,8.955,8.955,0,0,0,2.677,1.361a.471.471,0,0,0,.561.083L4.853.551a7.238,7.238,0,0,0,2.3,1.274V3.611a.439.439,0,0,0,.356.425,9.945,9.945,0,0,0,4.14,0,.439.439,0,0,0,.356-.425V1.825a7.466,7.466,0,0,0,2.3-1.274l1.615.893a.465.465,0,0,0,.561-.083,8.9,8.9,0,0,0,2.074-3.433A.44.44,0,0,0,18.353-2.584Zm-8.772.737a2.974,2.974,0,0,1-3.033-2.9,2.974,2.974,0,0,1,3.033-2.9,2.974,2.974,0,0,1,3.033,2.9A2.974,2.974,0,0,1,9.581-1.847Z" transform="translate(-0.583 13.747)" fill="#132d39"/>
</svg>
