<svg xmlns="http://www.w3.org/2000/svg" width="20" height="20" viewBox="0 0 20 20">
  <path id="Cog_Icon" data-name="Cog Icon" d="M20.327-1.344l-1.794-.992a7.441,7.441,0,0,0,0-2.831l1.794-.992a.478.478,0,0,0,.232-.565,9.951,9.951,0,0,0-2.3-3.814.523.523,0,0,0-.623-.093l-1.794.992a8.041,8.041,0,0,0-2.561-1.415v-1.98a.488.488,0,0,0-.4-.472,11.051,11.051,0,0,0-4.6,0,.488.488,0,0,0-.4.472v1.984A8.3,8.3,0,0,0,5.324-9.634l-1.79-.992a.517.517,0,0,0-.623.093,9.891,9.891,0,0,0-2.3,3.815.474.474,0,0,0,.232.565l1.794.992a7.441,7.441,0,0,0,0,2.831L.838-1.34a.478.478,0,0,0-.232.565,9.951,9.951,0,0,0,2.3,3.815.523.523,0,0,0,.623.093L5.328,2.14A8.042,8.042,0,0,0,7.889,3.556V5.539a.488.488,0,0,0,.4.472,11.05,11.05,0,0,0,4.6,0,.488.488,0,0,0,.4-.472V3.556A8.3,8.3,0,0,0,15.841,2.14l1.794.992a.517.517,0,0,0,.623-.093,9.891,9.891,0,0,0,2.3-3.815A.489.489,0,0,0,20.327-1.344ZM10.58-.525a3.3,3.3,0,0,1-3.37-3.226,3.3,3.3,0,0,1,3.37-3.226,3.3,3.3,0,0,1,3.37,3.226A3.3,3.3,0,0,1,10.58-.525Z" transform="translate(-0.583 13.747)" fill="#b8e4f9"/>
</svg>
