<svg xmlns="http://www.w3.org/2000/svg" width="16" height="16" viewBox="0 0 16 16">
  <path id="Path_415" data-name="Path 415" d="M11.033-5.8l4.549-4.549a1.43,1.43,0,0,0,0-2.022L14.57-13.381a1.43,1.43,0,0,0-2.022,0L8-8.833,3.451-13.381a1.43,1.43,0,0,0-2.022,0L.419-12.37a1.43,1.43,0,0,0,0,2.022L4.967-5.8.419-1.251A1.43,1.43,0,0,0,.419.77L1.43,1.781a1.43,1.43,0,0,0,2.022,0L8-2.767l4.549,4.549a1.43,1.43,0,0,0,2.022,0L15.581.77a1.43,1.43,0,0,0,0-2.022Z" transform="translate(0 13.8)" fill="#fff"/>
</svg>
