<svg xmlns="http://www.w3.org/2000/svg" width="65" height="32" viewBox="0 0 65 32">
  <g id="delete-image-sprite" transform="translate(-911 -88)">
    <g id="Delete_Image_Hover" data-name="Delete Image Hover" transform="translate(524 -39)">
      <g id="Ellipse" transform="translate(420 127)" fill="#bb3f27" stroke="#ba3f26" stroke-width="2">
        <circle cx="16" cy="16" r="16" stroke="none"/>
        <circle cx="16" cy="16" r="15" fill="none"/>
      </g>
      <path id="Delete_Icon" data-name="Delete Icon" d="M11.571-13.125H8.357l-.252-.511A.7.7,0,0,0,7.53-14H4.466a.693.693,0,0,0-.571.364l-.252.511H.429A.433.433,0,0,0,0-12.687v.875a.433.433,0,0,0,.429.438H11.571A.433.433,0,0,0,12-11.812v-.875A.433.433,0,0,0,11.571-13.125ZM1.425-1.23A1.315,1.315,0,0,0,2.708,0H9.291a1.314,1.314,0,0,0,1.286-1.23l.566-9.27H.857Z" transform="translate(430 150)" fill="#fff"/>
    </g>
    <g id="Delete_Image" data-name="Delete Image" transform="translate(491 -39)">
      <g id="Ellipse-2" data-name="Ellipse" transform="translate(420 127)" fill="#fff" stroke="#bb3f27" stroke-width="2">
        <circle cx="16" cy="16" r="16" stroke="none"/>
        <circle cx="16" cy="16" r="15" fill="none"/>
      </g>
      <path id="Delete_Icon-2" data-name="Delete Icon" d="M11.571-13.125H8.357l-.252-.511A.7.7,0,0,0,7.53-14H4.466a.693.693,0,0,0-.571.364l-.252.511H.429A.433.433,0,0,0,0-12.687v.875a.433.433,0,0,0,.429.438H11.571A.433.433,0,0,0,12-11.812v-.875A.433.433,0,0,0,11.571-13.125ZM1.425-1.23A1.315,1.315,0,0,0,2.708,0H9.291a1.314,1.314,0,0,0,1.286-1.23l.566-9.27H.857Z" transform="translate(430 150)" fill="#bb3f27"/>
    </g>
  </g>
</svg>
