<svg xmlns="http://www.w3.org/2000/svg" width="33" height="16.002" viewBox="0 0 33 16.002">
  <g id="Delete_Icons" data-name="Delete Icons" transform="translate(-102 -398)">
    <path id="Delete_Icon" data-name="Delete Icon" d="M15.429-13H11.143l-.336-.584A.961.961,0,0,0,10.04-14H5.954a.947.947,0,0,0-.761.416L4.857-13H.571A.539.539,0,0,0,0-12.5v1a.539.539,0,0,0,.571.5H15.429A.539.539,0,0,0,16-11.5v-1a.539.539,0,0,0-.571-.5ZM1.9.594A1.657,1.657,0,0,0,3.61,2h8.778A1.658,1.658,0,0,0,14.1.594L14.857-10H1.143Z" transform="translate(102 412)" fill="#132d39"/>
    <path id="Delete_Icon-2" data-name="Delete Icon" d="M15.429-13H11.143l-.336-.584A.961.961,0,0,0,10.04-14H5.954a.947.947,0,0,0-.761.416L4.857-13H.571A.539.539,0,0,0,0-12.5v1a.539.539,0,0,0,.571.5H15.429A.539.539,0,0,0,16-11.5v-1a.539.539,0,0,0-.571-.5ZM1.9.594A1.657,1.657,0,0,0,3.61,2h8.778A1.658,1.658,0,0,0,14.1.594L14.857-10H1.143Z" transform="translate(119 412)" fill="#367da1"/>
  </g>
</svg>
