<svg xmlns="http://www.w3.org/2000/svg" width="29" height="14" viewBox="0 0 29 14">
  <g id="Delete_Icons" data-name="Delete Icons" transform="translate(-103 -398)">
    <path id="Delete_Icon" data-name="Delete Icon" d="M13.5-13.125H9.75l-.294-.511A.841.841,0,0,0,8.785-14H5.209a.828.828,0,0,0-.666.364l-.294.511H.5a.467.467,0,0,0-.341.114A.467.467,0,0,0,0-12.688v.875a.467.467,0,0,0,.158.323.467.467,0,0,0,.341.114h13a.467.467,0,0,0,.341-.114A.467.467,0,0,0,14-11.813v-.875a.467.467,0,0,0-.158-.323A.467.467,0,0,0,13.5-13.125ZM1.662-1.233A1.45,1.45,0,0,0,3.159,0h7.68a1.45,1.45,0,0,0,1.5-1.23L13-10.5H1Z" transform="translate(103 412)" fill="#132d39"/>
    <path id="Delete_Icon-2" data-name="Delete Icon" d="M13.5-13.125H9.75l-.294-.511A.841.841,0,0,0,8.785-14H5.209a.828.828,0,0,0-.666.364l-.294.511H.5a.467.467,0,0,0-.341.114A.467.467,0,0,0,0-12.688v.875a.467.467,0,0,0,.158.323.467.467,0,0,0,.341.114h13a.467.467,0,0,0,.341-.114A.467.467,0,0,0,14-11.813v-.875a.467.467,0,0,0-.158-.323A.467.467,0,0,0,13.5-13.125ZM1.662-1.233A1.45,1.45,0,0,0,3.159,0h7.68a1.45,1.45,0,0,0,1.5-1.23L13-10.5H1Z" transform="translate(118 412)" fill="#367da1"/>
  </g>
</svg>
