<svg xmlns="http://www.w3.org/2000/svg" width="29" height="14" viewBox="0 0 29 14">
  <g id="Edit_Icons" data-name="Edit Icons" transform="translate(-101.998 -395.995)">
    <path id="Edit_Icon" data-name="Edit Icon" d="M9.785-11.725a.219.219,0,0,0-.168-.078.219.219,0,0,0-.168.078L4.141-5.752,3.888-3.214a.573.573,0,0,0,.135.438.442.442,0,0,0,.39.152l2.255-.28,5.309-5.976a.293.293,0,0,0,0-.377Zm3.938-.627-1.187-1.335A.875.875,0,0,0,11.865-14a.875.875,0,0,0-.671.313l-.86.968a.293.293,0,0,0,0,.377l2.192,2.466a.219.219,0,0,0,.167.078.219.219,0,0,0,.168-.078l.86-.968a1.167,1.167,0,0,0,0-1.51ZM9.334-4.531V-1.75H1.556V-10.5H7.141a.282.282,0,0,0,.207-.1l.972-1.093a.359.359,0,0,0,.064-.359.293.293,0,0,0-.271-.2H1.167A1.246,1.246,0,0,0,0-10.937v9.625A1.246,1.246,0,0,0,1.167,0H9.722a1.246,1.246,0,0,0,1.167-1.312V-5.629a.331.331,0,0,0-.18-.3.27.27,0,0,0-.319.071L9.418-4.768A.359.359,0,0,0,9.334-4.531Z" transform="translate(102 409.995)" fill="#132d39"/>
    <path id="Edit_Icon-2" data-name="Edit Icon" d="M9.785-11.725a.219.219,0,0,0-.168-.078.219.219,0,0,0-.168.078L4.141-5.752,3.888-3.214a.573.573,0,0,0,.135.438.442.442,0,0,0,.39.152l2.255-.28,5.309-5.976a.293.293,0,0,0,0-.377Zm3.938-.627-1.187-1.335A.875.875,0,0,0,11.865-14a.875.875,0,0,0-.671.313l-.86.968a.293.293,0,0,0,0,.377l2.192,2.466a.219.219,0,0,0,.167.078.219.219,0,0,0,.168-.078l.86-.968a1.167,1.167,0,0,0,0-1.51ZM9.334-4.531V-1.75H1.556V-10.5H7.141a.282.282,0,0,0,.207-.1l.972-1.093a.359.359,0,0,0,.064-.359.293.293,0,0,0-.271-.2H1.167A1.246,1.246,0,0,0,0-10.937v9.625A1.246,1.246,0,0,0,1.167,0H9.722a1.246,1.246,0,0,0,1.167-1.312V-5.629a.331.331,0,0,0-.18-.3.27.27,0,0,0-.319.071L9.418-4.768A.359.359,0,0,0,9.334-4.531Z" transform="translate(117 409.995)" fill="#367da1"/>
  </g>
</svg>
