<svg xmlns="http://www.w3.org/2000/svg" width="33" height="16" viewBox="0 0 33 16">
  <g id="edit-pen-icon" transform="translate(-11355 -8550)">
    <path id="Pen" d="M-6.915-11.086-15.6-2.4-16,1.167A.75.75,0,0,0-15.168,2L-11.6,1.6l8.687-8.687Zm6.475-.6L-2.318-13.56a1.5,1.5,0,0,0-2.122,0l-1.767,1.767,4,4L-.44-9.56A1.5,1.5,0,0,0-.44-11.682Z" transform="translate(11371 8564)" fill="#132d39"/>
    <path id="Pen-2" data-name="Pen" d="M-6.915-11.086-15.6-2.4-16,1.167A.75.75,0,0,0-15.168,2L-11.6,1.6l8.687-8.687Zm6.475-.6L-2.318-13.56a1.5,1.5,0,0,0-2.122,0l-1.767,1.767,4,4L-.44-9.56A1.5,1.5,0,0,0-.44-11.682Z" transform="translate(11388 8564)" fill="#204a60"/>
  </g>
</svg>
