<svg xmlns="http://www.w3.org/2000/svg" width="18" height="15.997" viewBox="0 0 18 15.997"><path d="M12.581-11.4a.306.306,0,0,0-.431,0L5.325-4.575,5-1.675A.608.608,0,0,0,5.675-1l2.9-.322L15.4-8.15a.306.306,0,0,0,0-.431Zm5.062-.716-1.525-1.525a1.222,1.222,0,0,0-1.725,0l-1.106,1.106a.306.306,0,0,0,0,.431l2.819,2.819a.306.306,0,0,0,.431,0l1.106-1.106A1.222,1.222,0,0,0,17.644-12.116ZM12-3.181V0H2V-10H9.181a.384.384,0,0,0,.266-.109l1.25-1.25A.375.375,0,0,0,10.431-12H1.5A1.5,1.5,0,0,0,0-10.5V.5A1.5,1.5,0,0,0,1.5,2h11A1.5,1.5,0,0,0,14,.5V-4.431a.376.376,0,0,0-.641-.266l-1.25,1.25A.384.384,0,0,0,12-3.181Z" transform="translate(0 13.997)" fill="#132d39"/></svg>