<svg xmlns="http://www.w3.org/2000/svg" width="33.001" height="16" viewBox="0 0 33.001 16">
  <g id="Edit_Icons" data-name="Edit Icons" transform="translate(-101.998 -395.995)">
    <path id="Edit_Icon" data-name="Edit Icon" d="M11.183-11.4a.251.251,0,0,0-.192-.089.251.251,0,0,0-.192.089L4.733-4.573l-.289,2.9a.655.655,0,0,0,.155.5A.506.506,0,0,0,5.044-1l2.578-.32,6.067-6.829a.334.334,0,0,0,0-.431Zm4.5-.716-1.356-1.525A1,1,0,0,0,13.56-14a1,1,0,0,0-.767.358l-.983,1.106a.334.334,0,0,0,0,.431l2.506,2.819a.251.251,0,0,0,.191.089.251.251,0,0,0,.192-.089l.983-1.106a1.333,1.333,0,0,0,0-1.725ZM10.667-3.179V0H1.778V-10H8.161a.323.323,0,0,0,.236-.109l1.111-1.25a.41.41,0,0,0,.073-.41A.335.335,0,0,0,9.272-12H1.333A1.424,1.424,0,0,0,0-10.5V.5A1.424,1.424,0,0,0,1.333,2h9.778A1.424,1.424,0,0,0,12.445.5V-4.429a.379.379,0,0,0-.206-.347.308.308,0,0,0-.364.081l-1.111,1.25A.41.41,0,0,0,10.667-3.179Z" transform="translate(102 409.995)" fill="#132d39"/>
    <path id="Edit_Icon-2" data-name="Edit Icon" d="M11.183-11.4a.251.251,0,0,0-.192-.089.251.251,0,0,0-.192.089L4.733-4.573l-.289,2.9a.655.655,0,0,0,.155.5A.506.506,0,0,0,5.044-1l2.578-.32,6.067-6.829a.334.334,0,0,0,0-.431Zm4.5-.716-1.356-1.525A1,1,0,0,0,13.56-14a1,1,0,0,0-.767.358l-.983,1.106a.334.334,0,0,0,0,.431l2.506,2.819a.251.251,0,0,0,.191.089.251.251,0,0,0,.192-.089l.983-1.106a1.333,1.333,0,0,0,0-1.725ZM10.667-3.179V0H1.778V-10H8.161a.323.323,0,0,0,.236-.109l1.111-1.25a.41.41,0,0,0,.073-.41A.335.335,0,0,0,9.272-12H1.333A1.424,1.424,0,0,0,0-10.5V.5A1.424,1.424,0,0,0,1.333,2h9.778A1.424,1.424,0,0,0,12.445.5V-4.429a.379.379,0,0,0-.206-.347.308.308,0,0,0-.364.081l-1.111,1.25A.41.41,0,0,0,10.667-3.179Z" transform="translate(119 409.995)" fill="#367da1"/>
  </g>
</svg>
