<svg id="Error_Icon" data-name="Error Icon" xmlns="http://www.w3.org/2000/svg" width="24" height="24" viewBox="0 0 24 24">
  <g id="Ellipse" fill="#fff" stroke="#ad0e00" stroke-width="2">
    <circle cx="12" cy="12" r="12" stroke="none"/>
    <circle cx="12" cy="12" r="11" fill="none"/>
  </g>
  <path id="_" data-name="!" d="M2-20.271H6v2.1l-.678,6.11H2.656L2-18.166ZM2.566-8.7A1.318,1.318,0,0,1,2-9.765a1.288,1.288,0,0,1,.576-1.061,2.285,2.285,0,0,1,1.412-.433,2.285,2.285,0,0,1,1.412.433,1.288,1.288,0,0,1,.576,1.061A1.288,1.288,0,0,1,5.4-8.7a2.285,2.285,0,0,1-1.412.433A2.367,2.367,0,0,1,2.566-8.7Z" transform="translate(7.999 26.271)" fill="#ad0e00"/>
</svg>
