<svg xmlns="http://www.w3.org/2000/svg" width="18" height="18" viewBox="0 0 18 18"><path d="M.643-10.334H17.357A.693.693,0,0,0,18-11.069v-1.837a.693.693,0,0,0-.643-.735H.643A.693.693,0,0,0,0-12.906v1.837A.693.693,0,0,0,.643-10.334Zm0,7.347H17.357A.693.693,0,0,0,18-3.722V-5.559a.693.693,0,0,0-.643-.735H.643A.693.693,0,0,0,0-5.559v1.837A.693.693,0,0,0,.643-2.988Zm0,7.347H17.357A.693.693,0,0,0,18,3.625V1.788a.693.693,0,0,0-.643-.735H.643A.693.693,0,0,0,0,1.788V3.625A.693.693,0,0,0,.643,4.359Z" transform="translate(0 13.641)" fill="#b8e4f9"/></svg>