<svg xmlns="http://www.w3.org/2000/svg" width="100" height="87.5" viewBox="0 0 100 87.5">
  <path id="Hamburger_Placeholder_Icon" data-name="Hamburger Placeholder Icon" d="M-9.375-37.5h-81.25A9.378,9.378,0,0,0-100-28.125a9.378,9.378,0,0,0,9.375,9.375h81.25A9.378,9.378,0,0,0,0-28.125,9.378,9.378,0,0,0-9.375-37.5Zm3.125,25h-87.5a3.126,3.126,0,0,0-3.125,3.125V-6.25a12.5,12.5,0,0,0,12.5,12.5h68.75a12.5,12.5,0,0,0,12.5-12.5V-9.375A3.126,3.126,0,0,0-6.25-12.5Zm-82.3-31.25h77.094c6.752,0,10.668-8.574,6.8-14.82C-12.5-71.25-29.776-81.23-50-81.25c-20.223.019-37.5,10-45.347,22.678C-99.219-52.326-95.3-43.75-88.547-43.75ZM-25-65.625A3.126,3.126,0,0,1-21.875-62.5,3.126,3.126,0,0,1-25-59.375,3.126,3.126,0,0,1-28.125-62.5,3.126,3.126,0,0,1-25-65.625Zm-25-6.25a3.126,3.126,0,0,1,3.125,3.125A3.126,3.126,0,0,1-50-65.625a3.126,3.126,0,0,1-3.125-3.125A3.126,3.126,0,0,1-50-71.875Zm-25,6.25A3.126,3.126,0,0,1-71.875-62.5,3.126,3.126,0,0,1-75-59.375,3.126,3.126,0,0,1-78.125-62.5,3.126,3.126,0,0,1-75-65.625Z" transform="translate(100 81.25)" fill="#132d39" opacity="0.201"/>
</svg>
