<svg xmlns="http://www.w3.org/2000/svg" width="54" height="40.005" viewBox="0 0 54 40.005"><path d="M48.938-89.25H5.062a5.032,5.032,0,0,0-5.062,5v30a5.032,5.032,0,0,0,5.062,5H48.938a5.032,5.032,0,0,0,5.063-5v-30A5.032,5.032,0,0,0,48.938-89.25Zm-.633,35H5.7a.629.629,0,0,1-.633-.625V-83.624a.629.629,0,0,1,.633-.625H48.3a.629.629,0,0,1,.633.625v28.754A.629.629,0,0,1,48.3-54.246ZM13.5-80.082a4.193,4.193,0,0,0-4.219,4.167A4.193,4.193,0,0,0,13.5-71.748a4.193,4.193,0,0,0,4.219-4.167A4.193,4.193,0,0,0,13.5-80.082ZM10.125-59.246h33.75V-67.58L34.645-76.7a1.277,1.277,0,0,0-1.79,0L20.25-64.247l-4.168-4.117a1.277,1.277,0,0,0-1.79,0l-4.167,4.117Z" transform="translate(0 89.25)" fill="#4f5d64" opacity="0.198"/></svg>