<svg xmlns="http://www.w3.org/2000/svg" width="20" height="20" viewBox="0 0 20 20">
  <path id="Add_Ingredients_Icon" data-name="Add Ingredients Icon" d="M-.35-14.882A4.853,4.853,0,0,0-6.218-13.6l2.156,2.156a.62.62,0,0,1,0,.883.625.625,0,0,1-.441.184.625.625,0,0,1-.441-.184l-1.961-1.961-5,10.263a.886.886,0,0,0,0,.77.878.878,0,0,0,1.172.4l5.219-2.547L-7.441-5.557a.62.62,0,0,1,0-.883.627.627,0,0,1,.883,0l2.227,2.227L-.346-6.159A4.84,4.84,0,0,0,1.885-8.39,4.855,4.855,0,0,0-.35-14.882Zm3.6-1.363A3.882,3.882,0,0,0,2.064-21a3.869,3.869,0,0,0-.309,5.934l.313.313A3.869,3.869,0,0,0,8-15.062,3.883,3.883,0,0,0,3.248-16.246Z" transform="translate(11.998 21)" fill="#fff"/>
</svg>
