<svg xmlns="http://www.w3.org/2000/svg" width="20" height="20" viewBox="0 0 20 20">
  <path id="Recipe_Instruction_Icon" data-name="Recipe Instruction Icon" d="M-11.855-14.7v.4c0,.334.154.517.454.517h2.64c.3,0,.454-.183.454-.517v-.4c0-.334-.154-.517-.454-.517h-.608v-3.767c0-.342-.161-.517-.461-.517H-10.3a.7.7,0,0,0-.566.254l-.852.89a.5.5,0,0,0-.021.731l.216.278a.373.373,0,0,0,.615.048,1.526,1.526,0,0,0,.112-.167h.014s-.021.238-.021.469v1.78H-11.4C-11.7-15.216-11.855-15.033-11.855-14.7ZM-11.9-7.331h0v.18a.458.458,0,0,0,.474.508h2.665c.3,0,.453-.18.453-.508v-.391c0-.328-.158-.508-.453-.508h-1.532c.076-.469,1.91-.829,1.91-2.541a1.673,1.673,0,0,0-1.745-1.767,1.831,1.831,0,0,0-1.587.836.479.479,0,0,0,.11.688l.337.3c.22.2.433.109.632-.109a.5.5,0,0,1,.371-.172.353.353,0,0,1,.364.391C-9.9-9.848-11.9-9.441-11.9-7.331Zm.135,6.7a.524.524,0,0,0,.1.711A2.392,2.392,0,0,0-10.25.5a1.838,1.838,0,0,0,1.9-1.97A1.58,1.58,0,0,0-9.474-3.025l.687-.9a.968.968,0,0,0,.2-.633v-.149c0-.328-.151-.508-.447-.508h-2.294c-.3,0-.447.172-.447.508v.391c0,.328.151.508.447.508h.508a2,2,0,0,0,.495-.047v.016a6.358,6.358,0,0,0-.481.6l-.22.313a.654.654,0,0,0-.11.664l.041.086c.117.258.247.352.481.352h.185c.405,0,.625.109.625.406,0,.211-.165.367-.563.367a1.273,1.273,0,0,1-.563-.141c-.254-.172-.46-.156-.611.141Zm5.428-14.4H7.476A.675.675,0,0,0,8.1-15.75v-1.786a.675.675,0,0,0-.628-.714H-6.334a.675.675,0,0,0-.628.714v1.786A.675.675,0,0,0-6.334-15.036Zm0,7.143H7.476A.675.675,0,0,0,8.1-8.607v-1.786a.675.675,0,0,0-.628-.714H-6.334a.675.675,0,0,0-.628.714v1.786A.675.675,0,0,0-6.334-7.893Zm0,7.143H7.476A.675.675,0,0,0,8.1-1.464V-3.25a.675.675,0,0,0-.628-.714H-6.334a.675.675,0,0,0-.628.714v1.786A.675.675,0,0,0-6.334-.75Z" transform="translate(11.896 19.5)" fill="#fff"/>
</svg>
