<svg xmlns="http://www.w3.org/2000/svg" width="20" height="20" viewBox="0 0 20 20">
  <path id="Log_Out_Icon" data-name="Log Out Icon" d="M19.723-1.116a1.554,1.554,0,0,0,0-1.771l-6.667-8.749c-.6-.781-1.627-.229-1.627.885v5h-5.4A1.129,1.129,0,0,0,5.08-4.5v5a1.129,1.129,0,0,0,.952,1.25h5.4v5c0,1.12,1.032,1.666,1.627.885ZM7.619,7.372V5.289a.568.568,0,0,0-.476-.625H3.81A1.508,1.508,0,0,1,2.54,3V-7A1.508,1.508,0,0,1,3.81-8.667H7.143a.568.568,0,0,0,.476-.625v-2.083A.568.568,0,0,0,7.143-12H3.81C1.706-12,0-9.76,0-7V3c0,2.76,1.706,5,3.81,5H7.143A.568.568,0,0,0,7.619,7.372Z" transform="translate(0 12.001)" fill="#b8e4f9"/>
</svg>
