<svg xmlns="http://www.w3.org/2000/svg" width="18" height="18" viewBox="0 0 18 18">
  <path id="Log_Out_Icon" data-name="Log Out Icon" d="M17.751-2.2a1.4,1.4,0,0,0,0-1.593l-6-7.874c-.539-.7-1.464-.206-1.464.8v4.5H5.429a1.016,1.016,0,0,0-.857,1.125v4.5A1.016,1.016,0,0,0,5.429.373h4.857v4.5c0,1.008.929,1.5,1.464.8ZM6.857,5.435V3.56A.511.511,0,0,0,6.429,3h-3A1.357,1.357,0,0,1,2.286,1.5v-9A1.357,1.357,0,0,1,3.429-9h3a.511.511,0,0,0,.429-.562v-1.875A.511.511,0,0,0,6.429-12h-3C1.536-12,0-9.984,0-7.5v9C0,3.982,1.536,6,3.429,6h3A.511.511,0,0,0,6.857,5.435Z" transform="translate(0 12.001)" fill="#132d39"/>
</svg>
