<svg xmlns="http://www.w3.org/2000/svg" width="20" height="19.998" viewBox="0 0 20 19.998">
  <path id="Magnifying_Glass" data-name="Magnifying Glass" d="M19.728-3.711,15.833-7.6a.937.937,0,0,0-.664-.273h-.637a8.082,8.082,0,0,0,1.719-5A8.123,8.123,0,0,0,8.126-21,8.123,8.123,0,0,0,0-12.877,8.123,8.123,0,0,0,8.126-4.753a8.087,8.087,0,0,0,5-1.718v.637a.936.936,0,0,0,.273.664l3.895,3.894a.934.934,0,0,0,1.324,0l1.106-1.105A.942.942,0,0,0,19.728-3.711ZM8.126-7.878a5,5,0,0,1-5-5,5,5,0,0,1,5-5,5,5,0,0,1,5,5A5,5,0,0,1,8.126-7.878Z" transform="translate(0 21)" fill="#132d39"/>
</svg>
