<svg xmlns="http://www.w3.org/2000/svg" width="20" height="20" viewBox="0 0 20 20">
  <path id="Pizza_Icon" data-name="Pizza Icon" d="M6.206-19.244a1.288,1.288,0,0,0-1.38.942l-.579,2.2c7.329.214,12.287,5.1,12.6,12.383l2.224-.616a1.289,1.289,0,0,0,.923-1.4A15.525,15.525,0,0,0,6.206-19.244ZM3.922-14.869.022-.045A.761.761,0,0,0,0,.117.633.633,0,0,0,.634.75.76.76,0,0,0,.8.727L15.608-3.379C15.441-10.211,10.8-14.791,3.922-14.867ZM5-3a1.25,1.25,0,0,1-1.25-1.25A1.25,1.25,0,0,1,5-5.5a1.25,1.25,0,0,1,1.25,1.25A1.25,1.25,0,0,1,5-3ZM6.875-8.937a1.25,1.25,0,0,1-1.25-1.25,1.25,1.25,0,0,1,1.25-1.25,1.25,1.25,0,0,1,1.25,1.25A1.25,1.25,0,0,1,6.875-8.937Zm4.063,4.063a1.25,1.25,0,0,1-1.25-1.25,1.25,1.25,0,0,1,1.25-1.25,1.25,1.25,0,0,1,1.25,1.25A1.25,1.25,0,0,1,10.938-4.874Z" transform="translate(-0.001 19.25)" fill="#b8e4f9"/>
</svg>
