<svg xmlns="http://www.w3.org/2000/svg" width="48" height="48" viewBox="0 0 48 48">
  <path id="Recipe_Book" data-name="Recipe Book" d="M45.186.006C40.619.339,31.542,1.552,25.939,5.962a1.8,1.8,0,0,0-.606,1.411V46.359c0,1.238,1.053,2.02,1.94,1.445,5.765-3.731,14.1-4.749,18.225-5.027A3.069,3.069,0,0,0,48,39.492V3.3C48,1.4,46.721-.106,45.186.006ZM22.061,5.962C16.459,1.552,7.382.34,2.815.006,1.28-.106,0,1.4,0,3.3v36.2a3.068,3.068,0,0,0,2.5,3.285c4.124.279,12.466,1.3,18.231,5.03.885.573,1.934-.208,1.934-1.442V7.354A1.755,1.755,0,0,0,22.061,5.962Z" fill="#6e8591"/>
</svg>
