<svg xmlns="http://www.w3.org/2000/svg" width="9" height="12" viewBox="0 0 9 12">
  <g id="Group_27" data-name="Group 27" transform="translate(-379 -152)">
    <path id="Path_379" data-name="Path 379" d="M1.286-5A.715.715,0,0,0,.751-3.773L4.5-.211a.779.779,0,0,0,1.066,0L9.307-3.773A.715.715,0,0,0,8.772-5Z" transform="translate(378.471 164)" fill="#132d39"/>
    <path id="Path_388" data-name="Path 388" d="M1.286-5A.715.715,0,0,0,.751-3.773L4.5-.211a.779.779,0,0,0,1.066,0L9.307-3.773A.715.715,0,0,0,8.772-5Z" transform="translate(388.529 152) rotate(180)" fill="#132d39"/>
  </g>
</svg>
