<svg xmlns="http://www.w3.org/2000/svg" width="19" height="19" viewBox="0 0 19 19">
  <g id="Success_Icon" data-name="Success Icon" transform="translate(-288.16 -411.513)">
    <path id="Eclipse" d="M297.66,413.033a7.98,7.98,0,1,0,7.98,7.98,7.989,7.989,0,0,0-7.98-7.98m0-1.52a9.5,9.5,0,1,1-9.5,9.5A9.5,9.5,0,0,1,297.66,411.513Z" transform="translate(0)" fill="#0e222c"/>
    <path id="Tick" d="M295.9,423.774a.437.437,0,0,0,.587.046.346.346,0,0,0,.049-.046l5.174-5.4a.483.483,0,0,0,0-.664l-.636-.663a.437.437,0,0,0-.587-.046.348.348,0,0,0-.049.046l-4.22,4.4-1.969-2.055a.438.438,0,0,0-.588-.046.527.527,0,0,0-.049.046l-.636.664a.482.482,0,0,0,0,.663Z" transform="translate(0.321 0.601)" fill="#0e222c"/>
  </g>
</svg>
