<svg xmlns="http://www.w3.org/2000/svg" width="19" height="19" viewBox="0 0 19 19">
  <path id="Upload_Icon" data-name="Upload Icon" d="M-16.666-9.94a.889.889,0,0,0,.891-.891v-6.235h3.254A.741.741,0,0,0-12-18.332l-5.648-5.649a.719.719,0,0,0-1.013,0L-24.3-18.332a.741.741,0,0,0,.523,1.266h3.254v6.235a.889.889,0,0,0,.891.891Zm8.016-.3a.889.889,0,0,0-.891-.891h-5.047v.3a2.08,2.08,0,0,1-2.078,2.078h-2.969a2.08,2.08,0,0,1-2.078-2.078v-.3h-5.047a.889.889,0,0,0-.891.891V-6.08a.889.889,0,0,0,.891.891H-9.541A.889.889,0,0,0-8.65-6.08Zm-4.6,3.266a.744.744,0,0,1-.742.742.744.744,0,0,1-.742-.742.744.744,0,0,1,.742-.742A.744.744,0,0,1-13.252-6.971Zm2.375,0a.744.744,0,0,1-.742.742.744.744,0,0,1-.742-.742.744.744,0,0,1,.742-.742A.744.744,0,0,1-10.877-6.971Z" transform="translate(27.65 24.19)" fill="#fff"/>
</svg>
