<svg xmlns="http://www.w3.org/2000/svg" xmlns:xlink="http://www.w3.org/1999/xlink" width="25.498" height="21" viewBox="0 0 25.498 21">
  <defs>
    <filter id="user-cog" x="0" y="0" width="25.498" height="21" filterUnits="userSpaceOnUse">
      <feOffset dy="1" input="SourceAlpha"/>
      <feGaussianBlur stdDeviation="0.5" result="blur"/>
      <feFlood flood-opacity="0.502"/>
      <feComposite operator="in" in2="blur"/>
      <feComposite in="SourceGraphic"/>
    </filter>
  </defs>
  <g transform="matrix(1, 0, 0, 1, 0, 0)" filter="url(#user-cog)">
    <path id="user-cog-2" data-name="user-cog" d="M21.463-2.626a4.125,4.125,0,0,0,0-1.5l.907-.524a.255.255,0,0,0,.116-.3,5.275,5.275,0,0,0-1.167-2.018A.256.256,0,0,0,21-7.014L20.1-6.49a4.127,4.127,0,0,0-1.3-.749V-8.286a.256.256,0,0,0-.2-.25,5.3,5.3,0,0,0-2.327,0,.256.256,0,0,0-.2.25v1.048a4.127,4.127,0,0,0-1.3.749l-.907-.524a.257.257,0,0,0-.316.049,5.276,5.276,0,0,0-1.167,2.018.259.259,0,0,0,.116.3l.907.524a4.125,4.125,0,0,0,0,1.5L12.5-2.1a.255.255,0,0,0-.116.3A5.3,5.3,0,0,0,13.549.214a.256.256,0,0,0,.316.049l.907-.524a4.127,4.127,0,0,0,1.3.749V1.536a.256.256,0,0,0,.2.25,5.3,5.3,0,0,0,2.327,0,.256.256,0,0,0,.2-.25V.489A4.127,4.127,0,0,0,20.1-.26L21,.264a.257.257,0,0,0,.316-.049A5.275,5.275,0,0,0,22.486-1.8a.259.259,0,0,0-.116-.3Zm-4.025.956a1.707,1.707,0,0,1-1.705-1.705A1.709,1.709,0,0,1,17.437-5.08a1.709,1.709,0,0,1,1.705,1.705A1.707,1.707,0,0,1,17.437-1.67ZM7.875-6.75a4.5,4.5,0,0,0,4.5-4.5,4.5,4.5,0,0,0-4.5-4.5,4.5,4.5,0,0,0-4.5,4.5A4.5,4.5,0,0,0,7.875-6.75Zm7.073,7.963c-.081-.042-.162-.091-.239-.137l-.278.162a1.407,1.407,0,0,1-.689.186A1.4,1.4,0,0,1,12.727.981a6.411,6.411,0,0,1-1.413-2.447,1.375,1.375,0,0,1,.629-1.607l.278-.162q-.005-.137,0-.274l-.278-.162a1.373,1.373,0,0,1-.629-1.607c.032-.1.077-.2.113-.306-.134-.011-.264-.042-.4-.042h-.587a6.127,6.127,0,0,1-2.563.562,6.139,6.139,0,0,1-2.563-.562H4.725A4.726,4.726,0,0,0,0-.9V.562A1.688,1.688,0,0,0,1.687,2.25H14.062a1.686,1.686,0,0,0,.956-.3,1.369,1.369,0,0,1-.07-.415Z" transform="translate(1.5 16.25)" fill="#8fbbaf"/>
  </g>
</svg>
