<svg xmlns="http://www.w3.org/2000/svg" width="20" height="20" viewBox="0 0 20 20">
  <path id="Utencils_Icon" data-name="Utencils Icon" d="M10-18.656c-.154-.793-2.183-.8-2.308.043V-13.1c-.058.133-.726.125-.769,0-.067-.988-.375-5.434-.385-5.539-.154-.812-2.144-.812-2.3,0,0,.1-.317,4.551-.385,5.539-.043.125-.707.133-.769,0v-5.516c-.125-.848-2.149-.836-2.3-.043A39.189,39.189,0,0,0,0-13.625,4.218,4.218,0,0,0,3.313-9.539l-.62,9.3A1.051,1.051,0,0,0,3.846.75H6.923A1.051,1.051,0,0,0,8.077-.238l-.62-9.3a4.22,4.22,0,0,0,3.313-4.086A39.306,39.306,0,0,0,10-18.656ZM15.726-7.5,15-.266A1.04,1.04,0,0,0,16.154.75h2.692A1.06,1.06,0,0,0,20-.188V-18.312a1.063,1.063,0,0,0-1.154-.937C14.88-19.25,8.2-12.277,15.726-7.5Z" transform="translate(0 19.25)" fill="#b8e4f9"/>
</svg>
